<svg width="20" height="20" viewBox="0 0 20 20" fill="none" xmlns="http://www.w3.org/2000/svg">
<g clip-path="url(#clip0_596_2083)">
<path d="M8.5837 9.74998L6.91703 8.12498C6.77267 7.97742 6.68512 7.78357 6.66987 7.5777C6.65462 7.37183 6.71265 7.1672 6.8337 6.99998C6.90114 6.89956 6.9907 6.81593 7.0955 6.75551C7.2003 6.6951 7.31755 6.6595 7.43824 6.65145C7.55894 6.6434 7.67988 6.66312 7.79177 6.7091C7.90366 6.75507 8.00352 6.82607 8.0837 6.91665L9.16703 7.99998L11.917 5.24998C12.0775 5.12962 12.276 5.07119 12.4761 5.08541C12.6762 5.09963 12.8644 5.18555 13.0063 5.32739C13.1481 5.46923 13.2341 5.65748 13.2483 5.85757C13.2625 6.05766 13.2041 6.25617 13.0837 6.41665L9.75037 9.74998C9.67621 9.83081 9.58606 9.89534 9.48564 9.93949C9.38522 9.98363 9.27673 10.0064 9.16703 10.0064C9.05734 10.0064 8.94884 9.98363 8.84843 9.93949C8.74801 9.89534 8.65786 9.83081 8.5837 9.74998Z" fill="#78716C"/>
<path d="M16.6668 7.49999C16.6689 6.35009 16.3735 5.21921 15.8093 4.21722C15.2452 3.21523 14.4314 2.37619 13.4471 1.78164C12.4629 1.18709 11.3416 0.857229 10.1921 0.824115C9.04272 0.791002 7.90428 1.05576 6.88742 1.59266C5.87055 2.12956 5.00986 2.92036 4.38894 3.88821C3.76803 4.85606 3.40801 5.96806 3.34388 7.11617C3.27974 8.26428 3.51366 9.40946 4.02291 10.4404C4.53216 11.4714 5.29942 12.3532 6.25015 13V18.2917C6.2499 18.5167 6.33634 18.7332 6.49153 18.8961C6.64672 19.059 6.85872 19.1559 7.08349 19.1667C7.16715 19.171 7.25084 19.1585 7.32958 19.1299C7.40832 19.1012 7.48049 19.0571 7.54182 19L10.0002 17.0833L12.4585 19C12.5198 19.0571 12.592 19.1012 12.6707 19.1299C12.7495 19.1585 12.8332 19.171 12.9168 19.1667C13.1416 19.1559 13.3536 19.059 13.5088 18.8961C13.664 18.7332 13.7504 18.5167 13.7502 18.2917V13C14.6471 12.3897 15.3816 11.5698 15.8899 10.6114C16.3982 9.6529 16.6649 8.58488 16.6668 7.49999ZM5.00015 7.49999C5.00015 6.51109 5.2934 5.54439 5.84281 4.72214C6.39221 3.89989 7.17311 3.25903 8.08674 2.88059C9.00037 2.50216 10.0057 2.40314 10.9756 2.59607C11.9455 2.78899 12.8364 3.2652 13.5357 3.96446C14.235 4.66372 14.7112 5.55464 14.9041 6.52454C15.097 7.49445 14.998 8.49978 14.6196 9.41341C14.2411 10.327 13.6003 11.1079 12.778 11.6573C11.9558 12.2067 10.9891 12.5 10.0002 12.5C8.67407 12.5 7.4023 11.9732 6.46462 11.0355C5.52694 10.0978 5.00015 8.82607 5.00015 7.49999ZM12.0835 16.5833L10.2502 15.1667C10.1814 15.1052 10.0924 15.0712 10.0002 15.0712C9.90791 15.0712 9.81891 15.1052 9.75015 15.1667L7.91682 16.5833V13.8333C8.59058 14.0484 9.29291 14.1608 10.0002 14.1667C10.7074 14.1608 11.4097 14.0484 12.0835 13.8333V16.5833Z" fill="#78716C"/>
</g>
<defs>
<clipPath id="clip0_596_2083">
<rect width="20" height="20" fill="white"/>
</clipPath>
</defs>
</svg>
