<svg width="19" height="22" viewBox="0 0 19 22" fill="none" xmlns="http://www.w3.org/2000/svg">
<path d="M1 9.1433C1 4.64588 4.58172 1 9 1C13.4183 1 17 4.64588 17 9.1433C17 13.6055 14.4467 18.8124 10.4629 20.6744C9.5343 21.1085 8.4657 21.1085 7.5371 20.6744C3.55332 18.8124 1 13.6055 1 9.1433Z" stroke="#78716C" stroke-width="2"/>
<path d="M9 13C11.2091 13 13 11.2091 13 9C13 6.79086 11.2091 5 9 5C6.79086 5 5 6.79086 5 9C5 11.2091 6.79086 13 9 13Z" stroke="#78716C" stroke-width="2"/>
<path d="M7.5 9H10.5" stroke="#78716C" stroke-width="1.5" stroke-linecap="round"/>
<path d="M9 10.5V7.5" stroke="#78716C" stroke-width="1.5" stroke-linecap="round"/>
</svg>
