<svg width="26" height="26" viewBox="0 0 26 26" fill="none" xmlns="http://www.w3.org/2000/svg">
<path d="M0 13.9182V12.0432H6.87495V13.9182H0ZM7.98074 9.29801L5.54806 6.86533L6.86533 5.54806L9.29801 7.98074L7.98074 9.29801ZM12.0432 6.87495V0H13.9182V6.87495H12.0432ZM17.9807 9.29801L16.6634 7.98074L19.0961 5.54806L20.4134 6.86533L17.9807 9.29801ZM19.0865 13.9182V12.0432H25.9614V13.9182H19.0865ZM12.9807 16.1057C12.1073 16.1057 11.3682 15.8032 10.7632 15.1982C10.1582 14.5933 9.85576 13.8541 9.85576 12.9807C9.85576 12.1073 10.1582 11.3682 10.7632 10.7632C11.3682 10.1582 12.1073 9.85576 12.9807 9.85576C13.8541 9.85576 14.5933 10.1582 15.1982 10.7632C15.8032 11.3682 16.1057 12.1073 16.1057 12.9807C16.1057 13.8541 15.8032 14.5933 15.1982 15.1982C14.5933 15.8032 13.8541 16.1057 12.9807 16.1057ZM19.0961 20.4134L16.6634 17.9807L17.9807 16.6634L20.4134 19.0961L19.0961 20.4134ZM6.86533 20.4134L5.54806 19.0961L7.98074 16.6634L9.29801 17.9807L6.86533 20.4134ZM12.0432 25.9614V19.0865H13.9182V25.9614H12.0432Z" fill="#7C5145"/>
</svg>
